<?xml version="1.0" standalone="no"?>
<!DOCTYPE svg PUBLIC "-//W3C//DTD SVG 20010904//EN"
 "http://www.w3.org/TR/2001/REC-SVG-20010904/DTD/svg10.dtd">
<svg version="1.0" xmlns="http://www.w3.org/2000/svg"
 width="2000.000000pt" height="2000.000000pt" viewBox="0 0 2000.000000 2000.000000"
 preserveAspectRatio="xMidYMid meet">
<metadata>
Created by potrace 1.11, written by Peter Selinger 2001-2013
</metadata>
<g transform="translate(0.000000,2000.000000) scale(0.100000,-0.100000)"
fill="#000000" stroke="none">
<path d="M3665 19198 c-96 -21 -187 -84 -239 -167 -26 -41 -50 -112 -291 -856
-53 -165 -109 -338 -125 -385 -15 -47 -53 -161 -83 -255 -95 -294 -278 -855
-317 -975 -21 -63 -77 -236 -125 -385 -48 -148 -100 -308 -115 -355 -16 -47
-72 -220 -126 -385 -53 -165 -111 -345 -129 -400 -18 -55 -79 -242 -135 -415
-56 -173 -121 -373 -145 -445 -23 -71 -75 -231 -115 -355 -40 -124 -85 -263
-100 -310 -16 -47 -55 -168 -88 -270 -33 -102 -92 -282 -130 -400 -74 -228
-151 -465 -252 -775 -34 -104 -92 -284 -130 -400 -95 -292 -169 -519 -310
-955 -67 -206 -159 -490 -205 -630 -45 -140 -108 -331 -138 -425 -30 -93 -105
-323 -165 -510 -157 -483 -161 -496 -176 -566 -17 -85 -13 -227 9 -314 44
-176 145 -328 290 -435 33 -25 64 -48 70 -53 24 -18 142 -104 165 -119 29 -20
280 -203 295 -215 14 -12 868 -632 917 -666 69 -48 448 -324 473 -345 11 -8
197 -143 245 -177 36 -25 280 -203 665 -483 165 -120 683 -496 1150 -836 468
-339 859 -624 870 -632 66 -48 1365 -992 1382 -1004 31 -21 486 -353 498 -362
13 -11 107 -79 135 -98 12 -8 37 -26 55 -40 18 -14 44 -33 57 -42 23 -17 277
-202 372 -271 48 -34 72 -52 153 -109 61 -44 238 -173 253 -185 16 -13 105
-78 155 -113 17 -12 71 -51 122 -88 120 -88 255 -186 378 -275 55 -39 105 -76
112 -82 6 -5 27 -20 45 -33 18 -13 166 -120 328 -238 162 -118 304 -221 315
-228 11 -8 61 -44 110 -80 200 -146 325 -235 344 -246 25 -13 2 -28 393 256
157 115 296 216 309 224 12 8 34 24 48 36 14 11 82 60 151 109 69 49 127 92
130 95 3 4 50 38 105 77 55 39 125 90 155 112 66 49 51 38 292 212 106 77 204
149 218 159 14 10 81 59 150 109 69 50 133 96 142 103 9 7 26 20 38 28 11 8
177 129 368 268 191 139 388 281 437 317 79 56 381 276 441 320 12 9 186 135
385 280 382 278 380 276 468 341 31 22 124 90 206 149 83 60 190 138 239 174
49 36 149 108 222 161 142 102 1470 1066 1669 1212 66 49 129 95 140 103 11 8
130 94 265 192 135 98 258 187 273 198 35 25 99 72 112 83 13 10 404 293 555
402 111 79 191 138 365 265 167 122 426 310 785 571 212 153 387 282 388 286
2 5 8 8 13 8 5 0 17 7 26 15 10 8 59 44 108 80 172 123 220 169 287 272 57 87
85 154 108 261 21 95 21 243 0 322 -10 41 -186 589 -230 720 -11 30 -48 145
-83 255 -86 267 -274 846 -297 915 -10 30 -64 197 -120 370 -56 173 -119 367
-140 430 -21 63 -77 237 -125 385 -48 149 -102 315 -120 370 -62 188 -256 790
-267 825 -6 19 -14 44 -19 55 -4 11 -45 135 -90 275 -45 140 -105 327 -134
415 -29 88 -94 288 -145 445 -51 157 -103 317 -115 355 -13 39 -71 219 -130
400 -59 182 -113 348 -120 370 -8 22 -64 195 -125 385 -62 190 -122 377 -135
415 -13 39 -71 219 -130 400 -59 182 -115 355 -125 385 -10 30 -66 204 -125
385 -58 182 -117 362 -130 400 -13 39 -74 225 -135 415 -61 190 -120 370 -130
400 -10 30 -55 170 -101 310 -93 289 -115 341 -167 396 -81 85 -162 119 -288
118 -71 -1 -89 -5 -156 -37 -78 -38 -134 -90 -168 -157 -10 -19 -68 -190 -130
-380 -61 -190 -122 -376 -135 -415 -12 -38 -69 -212 -125 -385 -56 -173 -114
-353 -130 -400 -15 -47 -56 -173 -90 -280 -34 -107 -68 -211 -75 -230 -8 -19
-55 -163 -105 -320 -50 -157 -95 -296 -100 -310 -5 -14 -61 -187 -125 -385
-64 -198 -143 -441 -175 -540 -32 -99 -84 -259 -115 -355 -32 -96 -70 -213
-85 -260 -16 -47 -77 -233 -135 -415 -59 -181 -140 -433 -182 -560 -41 -126
-100 -306 -130 -400 -30 -93 -63 -195 -73 -225 -21 -63 -228 -701 -291 -897
l-42 -131 -3681 1 -3681 2 -58 180 c-32 99 -62 188 -67 197 -6 10 -10 23 -10
30 0 6 -36 120 -79 252 -71 216 -214 656 -353 1086 -27 85 -61 187 -73 225
-13 39 -74 225 -135 415 -61 190 -124 383 -140 430 -15 47 -78 240 -140 430
-125 386 -318 982 -417 1285 -36 110 -87 270 -115 355 -28 85 -63 193 -78 240
-16 47 -79 240 -140 430 -61 190 -122 377 -135 415 -13 39 -65 198 -115 355
-185 571 -183 566 -236 629 -33 40 -96 82 -154 105 -51 20 -156 27 -215 14z"/>
</g>
</svg>
